<?xml version="1.0" encoding="utf-8"?>
<!-- Uploaded to: SVG Repo, www.svgrepo.com, Generator: SVG Repo Mixer Tools -->
<svg fill="#000000" width="800px" height="800px" viewBox="0 0 32 32" version="1.1" xmlns="http://www.w3.org/2000/svg">
<title>vase</title>
<path d="M24.604 5.491c-1.113-0.969-2.627-0.052-4.198 1.185-0.048-0.576-0.439-0.81-0.439-1.435 0 0 1.606-0.365 1.997-0.998 0.35-0.566 0.405-1.468 0-1.997-1.257-1.642-4.992-1.618-5.99-1.618s-4.733-0.024-5.99 1.618c-0.405 0.528-0.35 1.431 0 1.997 0.391 0.633 1.997 0.998 1.997 0.998 0 0.457-0.445 0.75-0.443 1.489-1.639-1.254-3.221-2.214-4.344-1.199-2.010 1.818 0.117 5.86 1.302 8.168-0.757 2.006-1.011 4.014-0.51 5.518 0.998 2.995 3.994 4.992 3.994 6.988 0 0.998-0.998 0.998-0.998 1.997s1.997 2.995 4.992 2.995c2.995 0 4.992-1.997 4.992-2.995s-0.998-0.998-0.998-1.997c0-1.997 2.995-3.994 3.994-6.988 0.502-1.505 0.247-3.514-0.51-5.52 1.14-2.328 3.202-6.424 1.153-8.207zM11.98 8.236c-1.037 1.037-1.954 2.314-2.669 3.664-0.986-1.672-2.753-4.204-1.373-5.476 0.927-0.855 3.412 1.020 3.837 1.352 0.057 0.143 0.124 0.295 0.207 0.46h-0.001zM20.201 7.716c0.659-0.518 2.807-2.089 3.676-1.318 1.397 1.239-0.298 3.785-1.254 5.476-0.713-1.341-1.625-2.607-2.656-3.638 0.095-0.191 0.172-0.363 0.234-0.52z"></path>
</svg>