<?xml version="1.0" ?><!DOCTYPE svg  PUBLIC '-//W3C//DTD SVG 1.1//EN'  'http://www.w3.org/Graphics/SVG/1.1/DTD/svg11.dtd'><!-- Uploaded to: SVG Repo, www.svgrepo.com, Generator: SVG Repo Mixer Tools -->
<svg fill="#000000" width="800px" height="800px" viewBox="0 0 32 32" style="fill-rule:evenodd;clip-rule:evenodd;stroke-linejoin:round;stroke-miterlimit:2;" version="1.1" xml:space="preserve" xmlns="http://www.w3.org/2000/svg" xmlns:serif="http://www.serif.com/" xmlns:xlink="http://www.w3.org/1999/xlink"><g id="Icon"/><path d="M25.667,3c0,-0.552 -0.447,-1 -1,-1l-17.303,0c-0.552,0 -1,0.448 -1,1l0,26c0,0.552 0.448,1 1,1l17.303,-0c0.553,0 1,-0.448 1,-1l0,-26Zm-2,1l0,24c0,-0 -15.303,-0 -15.303,-0c0,-0 0,-24 0,-24l15.303,0Z"/><path d="M12.452,3.488c-0.053,0 -0.104,0.025 -0.136,0.067c-0.033,0.042 -0.045,0.097 -0.032,0.149l0.332,1.338c0.019,0.077 0.088,0.131 0.168,0.131l6.33,0c0.075,0 0.142,-0.048 0.165,-0.119l0.434,-1.339c0.017,-0.052 0.008,-0.11 -0.025,-0.155c-0.033,-0.045 -0.085,-0.072 -0.14,-0.072l-7.096,0Zm0.222,0.347l6.635,0c0,0 -0.321,0.991 -0.321,0.991c-0,0.001 -6.068,0.001 -6.068,0.001l-0.246,-0.992Z"/><path d="M14.5,4.481l3,-0c0.083,-0 0.15,-0.067 0.15,-0.15c-0,-0.083 -0.067,-0.15 -0.15,-0.15l-3,-0c-0.083,-0 -0.15,0.067 -0.15,0.15c-0,0.083 0.067,0.15 0.15,0.15Z"/><ellipse cx="17.933" cy="4.331" rx="0.067" ry="0.071"/><path d="M17.933,4.203c-0.068,0 -0.124,0.057 -0.124,0.128c-0,0.071 0.056,0.128 0.124,0.128c0.068,-0 0.124,-0.057 0.124,-0.128c0,-0.071 -0.056,-0.128 -0.124,-0.128Zm-0,0.114c0.006,0 0.01,0.007 0.01,0.014c-0,0.007 -0.004,0.014 -0.01,0.014c-0.007,-0 -0.01,-0.007 -0.01,-0.014c-0,-0.007 0.003,-0.014 0.01,-0.014Z"/></svg>